# File created by Blade
# Date/Time:  Wed Apr 08 17:24:25 2015
#---------------------------------------------------------
:version 1.10
:name HOM
:units
  mass 1.0
  length 1.000000
  angle deg
:documentation
     Acclaim Skeleton File
:root
   axis xyz
   order TX TY TZ RX RY RZ
   position 0.000000 0.000000 0.000000
   orientation 0 0 0
:bonedata
   begin
      id 1
      name Spine_dum
      direction 0.000000 1.000000 0.000000
      length 5.893853
      axis 0.0 0.0 0.0 xyz
   end
   begin
      id 2
      name LeftUpLeg_dum
      direction 1.000000 0.000000 0.000000
      length 3.697939
      axis 0.0 0.0 0.0 xyz
   end
   begin
      id 3
      name RightUpLeg_dum
      direction -1.000000 0.000000 0.000000
      length 3.697939
      axis 0.0 0.0 0.0 xyz
   end
   begin
      id 4
      name Spine
      direction 0.000000 1.000000 0.000000
      length 0.000000
      axis 0.0 0.0 0.0 xyz
      dof rx ry rz
   end
   begin
      id 5
      name Spine_dum1
      direction 0.000000 1.000000 0.000000
      length 16.447146
      axis 0.0 0.0 0.0 xyz
   end
   begin
      id 6
      name Spine_dum2
      direction 0.000000 1.000000 0.000000
      length 10.900383
      axis 0.0 0.0 0.0 xyz
   end
   begin
      id 7
      name Spine_dum3
      direction 0.000000 1.000000 0.000000
      length 10.900383
      axis 0.0 0.0 0.0 xyz
   end
   begin
      id 8
      name Head
      direction 0.000000 1.000000 0.000000
      length 4.527550
      axis 0.0 0.0 0.0 xyz
      dof rx ry rz
   end
   begin
      id 9
      name LeftShoulder
      direction 1.000000 0.000000 0.000000
      length 8.219464
      axis 0.0 0.0 -90.0 xyz
      dof rx ry rz
   end
   begin
      id 10
      name LeftArm
      direction 1.000000 0.000000 0.000000
      length 11.094937
      axis 0.0 0.0 -90.0 xyz
      dof rx ry rz
   end
   begin
      id 11
      name LeftForeArm
      direction 1.000000 0.000000 0.000000
      length 9.103875
      axis 0.0 0.0 -90.0 xyz
      dof ry rz rx
   end
   begin
      id 12
      name LeftHand
      direction 0.000000 0.000000 0.000000
      length 0.000000
      axis 0.0 0.0 -90.0 xyz
      dof rx ry rz
   end
   begin
      id 13
      name LeftHand_dum1
      direction 0.000000 0.000000 0.000000
      length 0.000000
      axis 0.0 0.0 -90.0 xyz
   end
   begin
      id 14
      name LeftHand_dum2
      direction 1.000000 0.000000 0.000000
      length 3.937000
      axis 0.0 0.0 -90.0 xyz
   end
   begin
      id 15
      name LeftHandThumb1
      direction 0.000000 0.000000 1.000000
      length 3.937000
      axis 0.0 0.0 -90.0 xyz
      dof rx rz ry
   end
   begin
      id 16
      name RightShoulder
      direction -1.000000 0.000000 0.000000
      length 8.219464
      axis 0.0 0.0 90.0 xyz
      dof rx ry rz
   end
   begin
      id 17
      name RightArm
      direction -1.000000 0.000000 0.000000
      length 11.094937
      axis 0.0 0.0 90.0 xyz
      dof rx ry rz
   end
   begin
      id 18
      name RightForeArm
      direction -1.000000 0.000000 0.000000
      length 9.103875
      axis 0.0 0.0 90.0 xyz
      dof ry rz rx
   end
   begin
      id 19
      name RightHand
      direction 0.000000 0.000000 0.000000
      length 0.000000
      axis 0.0 0.0 90.0 xyz
      dof rx ry rz
   end
   begin
      id 20
      name RightHand_dum1
      direction 0.000000 0.000000 0.000000
      length 0.000000
      axis 0.0 0.0 90.0 xyz
   end
   begin
      id 21
      name RightHand_dum2
      direction -1.000000 0.000000 0.000000
      length 3.937000
      axis 0.0 0.0 90.0 xyz
   end
   begin
      id 22
      name RightHandThumb1
      direction 0.000000 0.000000 1.000000
      length 3.937000
      axis 0.0 0.0 90.0 xyz
      dof rx rz ry
   end
   begin
      id 23
      name LeftUpLeg
      direction 0.000000 -1.000000 0.000000
      length 16.181467
      axis 0.0 0.0 0.0 xyz
      dof rx ry rz
   end
   begin
      id 24
      name LeftLeg
      direction 0.000000 -1.000000 0.000000
      length 16.501392
      axis 0.0 0.0 0.0 xyz
      dof rx ry rz
   end
   begin
      id 25
      name LeftFoot
      direction 0.000000 -0.258819 0.965926
      length 6.408245
      axis 15.0 0.0 0.0 xyz
      dof rx ry rz
   end
   begin
      id 26
      name LeftToeBase
      direction 0.000000 0.000000 1.000000
      length 2.952750
      axis 0.0 0.0 0.0 xyz
      dof rx ry rz
   end
   begin
      id 27
      name RightUpLeg
      direction 0.000000 -1.000000 0.000000
      length 16.181467
      axis 0.0 0.0 0.0 xyz
      dof rx ry rz
   end
   begin
      id 28
      name RightLeg
      direction 0.000000 -1.000000 0.000000
      length 16.501392
      axis 0.0 0.0 0.0 xyz
      dof rx ry rz
   end
   begin
      id 29
      name RightFoot
      direction 0.000000 -0.258819 0.965926
      length 6.408245
      axis 15.0 0.0 0.0 xyz
      dof rx ry rz
   end
   begin
      id 30
      name RightToeBase
      direction 0.000000 0.000000 1.000000
      length 2.952750
      axis 0.0 0.0 0.0 xyz
      dof rx ry rz
   end
:hierarchy
   begin
      root Spine_dum LeftUpLeg_dum RightUpLeg_dum
      Spine_dum Spine
      LeftUpLeg_dum LeftUpLeg
      RightUpLeg_dum RightUpLeg
      Spine Spine_dum1 Spine_dum2 Spine_dum3
      Spine_dum1 Head
      Spine_dum2 LeftShoulder
      Spine_dum3 RightShoulder
      LeftShoulder LeftArm
      LeftArm LeftForeArm
      LeftForeArm LeftHand
      LeftHand LeftHand_dum1 LeftHand_dum2
      LeftHand_dum1 LeftHandThumb1
      RightShoulder RightArm
      RightArm RightForeArm
      RightForeArm RightHand
      RightHand RightHand_dum1 RightHand_dum2
      RightHand_dum1 RightHandThumb1
      LeftUpLeg LeftLeg
      LeftLeg LeftFoot
      LeftFoot LeftToeBase
      RightUpLeg RightLeg
      RightLeg RightFoot
      RightFoot RightToeBase
   end

# File created by Blade
# Date/Time:  Wed Apr 08 17:24:36 2015
# Frame Rate: 120.000 fps
#------------------------------------------------------
:FULLY-SPECIFIED
:DEGREES
264
root 6.368767 36.529215 2.006920 -27.421595 -43.944023 -17.080620
Spine 48.304558 -3.610187 10.535387
Head -12.809701 25.349000 0.032485
LeftShoulder 7.422059 6.603677 21.172762
LeftArm 58.392068 32.977754 -67.300554
LeftForeArm -0.726780 -0.000000 32.486866
LeftHand -6.957017 -0.000000 -16.892311
LeftHandThumb1 -26.253704 0.000000 33.147579
RightShoulder -4.889504 -37.426867 -3.016972
RightArm 78.718840 -5.011940 44.113218
RightForeArm 46.284834 -0.000000 23.056784
RightHand -1.274108 -0.000000 27.556751
RightHandThumb1 -24.326973 -0.000000 -32.862282
LeftUpLeg 33.872261 10.324396 17.863647
LeftLeg 23.045448 -0.000000 -0.000000
LeftFoot -18.120846 5.592525 0.202105
LeftToeBase 3.665678 -0.000000 -0.000000
RightUpLeg -73.896421 -1.204218 22.038534
RightLeg 134.010227 -0.000000 -0.000000
RightFoot 6.409113 4.696462 19.280843
RightToeBase -7.290623 -0.000000 0.000000
265
root 6.362426 36.530430 2.023622 -27.552067 -43.719175 -17.031223
Spine 48.354573 -3.646751 10.579337
Head -12.915052 25.209370 0.094520
LeftShoulder 7.586048 6.540511 21.200826
LeftArm 58.325020 33.101034 -67.582816
LeftForeArm -1.020030 -0.000000 31.735663
LeftHand -7.055592 -0.000000 -17.162072
LeftHandThumb1 -26.253704 0.000000 33.147579
RightShoulder -4.806187 -37.529227 -2.933735
RightArm 78.669803 -5.174780 43.505373
RightForeArm 46.488299 -0.000000 22.815522
RightHand -1.122444 -0.000000 27.561640
RightHandThumb1 -24.326973 -0.000000 -32.862282
LeftUpLeg 33.851530 10.098641 17.666095
LeftLeg 23.137912 -0.000000 -0.000000
LeftFoot -18.079995 5.746914 0.244324
LeftToeBase 3.551084 -0.000000 -0.000000
RightUpLeg -73.544209 -1.157688 21.989832
RightLeg 133.949886 -0.000000 -0.000000
RightFoot 6.250867 4.765168 19.342559
RightToeBase -7.321313 -0.000000 0.000000
266
root 6.360182 36.528707 2.035944 -27.635123 -43.482516 -17.012132
Spine 48.389663 -3.701624 10.647512
Head -13.053862 25.028812 0.151983
LeftShoulder 7.762099 6.476822 21.235591
LeftArm 58.164185 33.136264 -68.050835
LeftForeArm -1.173537 -0.000000 30.920392
LeftHand -7.055467 -0.000000 -17.512374
LeftHandThumb1 -26.253704 0.000000 33.147579
RightShoulder -4.762095 -37.613028 -2.845231
RightArm 78.594331 -5.322080 42.789514
RightForeArm 46.793758 -0.000000 22.773695
RightHand -1.005792 -0.000000 27.502219
RightHandThumb1 -24.326973 -0.000000 -32.862282
LeftUpLeg 33.744244 9.914908 17.508564
LeftLeg 23.334316 -0.000000 -0.000000
LeftFoot -18.062900 5.927761 0.348692
LeftToeBase 3.396592 -0.000000 -0.000000
RightUpLeg -73.243776 -1.180057 21.943860
RightLeg 133.893150 -0.000000 -0.000000
RightFoot 6.086138 4.777196 19.351735
RightToeBase -7.211793 -0.000000 0.000000
267
root 6.345272 36.537551 2.056538 -27.878191 -43.106328 -17.143512
Spine 48.669155 -3.960985 10.723333
Head -13.196129 24.847561 0.243806
LeftShoulder 7.978291 6.387070 21.364136
LeftArm 58.008099 33.166606 -68.486292
LeftForeArm -1.506201 -0.000000 30.095752
LeftHand -6.868252 -0.000000 -17.855978
LeftHandThumb1 -26.253704 0.000000 33.147579
RightShoulder -4.793779 -37.778655 -2.676215
RightArm 78.600619 -5.370945 42.287714
RightForeArm 46.750022 -0.000000 22.817655
RightHand -0.948705 -0.000000 27.237449
RightHandThumb1 -24.326973 -0.000000 -32.862282
LeftUpLeg 33.841624 9.508593 17.452273
LeftLeg 23.551951 -0.000000 -0.000000
LeftFoot -18.031012 6.087722 0.430598
LeftToeBase 3.288234 -0.000000 -0.000000
RightUpLeg -72.714348 -1.441372 22.012179
RightLeg 133.798778 -0.000000 -0.000000
RightFoot 5.987236 4.488555 19.014074
RightToeBase -7.277675 -0.000000 0.000000
268
root 6.337905 36.537358 2.074354 -28.039942 -42.757118 -17.217832
Spine 48.830964 -4.180624 10.776412
Head -13.351733 24.668795 0.334017
LeftShoulder 8.221085 6.304291 21.508063
LeftArm 57.835184 33.188788 -68.861656
LeftForeArm -1.868968 -0.000000 29.362178
LeftHand -6.743864 -0.000000 -18.038803
LeftHandThumb1 -26.253704 0.000000 33.147579
RightShoulder -4.895145 -37.940109 -2.489027
RightArm 78.616818 -5.429605 41.667177
RightForeArm 46.673056 -0.000000 23.062952
RightHand -0.727310 -0.000000 26.834033
RightHandThumb1 -24.326973 -0.000000 -32.862282
LeftUpLeg 33.783469 9.217079 17.369932
LeftLeg 23.859979 -0.000000 -0.000000
LeftFoot -18.040543 6.246664 0.560604
LeftToeBase 3.205612 -0.000000 -0.000000
RightUpLeg -72.325616 -1.580604 22.019803
RightLeg 133.745951 -0.000000 -0.000000
RightFoot 5.872790 4.215846 18.935353
RightToeBase -7.396452 -0.000000 0.000000
269
root 6.343187 36.527020 2.079581 -28.062865 -42.533448 -17.223078
Spine 48.840779 -4.288463 10.826688
Head -13.518058 24.589419 0.402092
LeftShoulder 8.455277 6.259406 21.635547
LeftArm 57.639617 33.178548 -69.214217
LeftForeArm -2.360022 -0.000000 28.672762
LeftHand -6.555203 -0.000000 -18.319178
LeftHandThumb1 -26.253704 0.000000 33.147579
RightShoulder -4.994067 -38.091423 -2.290712
RightArm 78.613097 -5.462713 40.981033
RightForeArm 46.412425 -0.000000 23.497103
RightHand -0.303276 -0.000000 26.323388
RightHandThumb1 -24.326973 -0.000000 -32.862282
LeftUpLeg 33.558773 9.100261 17.250928
LeftLeg 24.178340 -0.000000 -0.000000
LeftFoot -18.072093 6.447203 0.677946
LeftToeBase 3.059243 -0.000000 -0.000000
RightUpLeg -72.111317 -1.589314 21.974580
RightLeg 133.684115 -0.000000 -0.000000
RightFoot 5.788040 4.045160 19.040987
RightToeBase -7.382955 -0.000000 0.000000
270
root 6.356478 36.512168 2.086136 -28.121788 -42.335704 -17.137298
Spine 48.846563 -4.377684 10.806797
Head -13.701395 24.564023 0.437722
LeftShoulder 8.683667 6.219501 21.794949
LeftArm 57.418046 33.156199 -69.576197
LeftForeArm -2.840376 0.000000 28.068436
LeftHand -6.440032 -0.000000 -18.465727
LeftHandThumb1 -26.253704 0.000000 33.147579
RightShoulder -5.148605 -38.210122 -2.090141
RightArm 78.665557 -5.521965 40.469753
RightForeArm 45.994996 0.000000 23.934274
RightHand -0.070275 0.000000 25.877616
RightHandThumb1 -24.326973 -0.000000 -32.862282
LeftUpLeg 33.352781 9.036874 17.049845
LeftLeg 24.439917 -0.000000 -0.000000
LeftFoot -18.118120 6.707107 0.770137
LeftToeBase 2.967127 -0.000000 -0.000000
RightUpLeg -71.965645 -1.549523 21.861954
RightLeg 133.654157 -0.000000 -0.000000
RightFoot 5.734643 3.874733 19.145239
RightToeBase -7.372694 -0.000000 0.000000
